<?xml version="1.0" encoding="utf-8"?>
<!-- Generator: Adobe Illustrator 23.0.6, SVG Export Plug-In . SVG Version: 6.00 Build 0)  -->
<svg version="1.1" id="Ebene_1" xmlns="http://www.w3.org/2000/svg" xmlns:xlink="http://www.w3.org/1999/xlink" x="0px" y="0px"
	 viewBox="0 0 203.4 166.5" style="enable-background:new 0 0 203.4 166.5;" xml:space="preserve">
<style type="text/css">
	.st0{fill:#007D31;}
</style>
<g>
	<path class="st0" d="M192.9,14c0,0,2.6-8.2,2.6-8.2l6.7,2.7c0,0-1.3-8.6-10.1-8.6c-5.4,0-10.3,0-13.2,0C186.6,0,192.9,6.3,192.9,14
		z"/>
	<path class="st0" d="M105.1,15.5c0,0-0.7-3.5-4.4-3.5c-3.7,0-4.4,3.4-4.4,3.4h0L80.7,71.1h-0.3l-13.2-59c-0.3-1.4-1.5-2.4-2.9-2.4
		H38.1c-1.4,0-2.6,1-2.9,2.3L0.1,162.2c-0.5,1.9,1,3.7,2.9,3.7h17.9c1.4,0,2.7-1,2.9-2.4l27-126.7h0.3l15.2,57.4
		c0.3,1.4,1.5,2.3,2.9,2.3h24.3c1.4,0,2.5-0.9,2.9-2.2l15.2-51.6l-1.7-7.1L105.1,15.5z"/>
	<path class="st0" d="M202.1,69.9l-12.8-52.6c-0.7-2.9-0.4-5.5,0.3-7.7c-2.1-4.3-6.6-7.5-11.7-7.5c-5.2,0-9.8,3.3-11.8,7.7
		c-1.1,2.3-1.3,4.9-0.7,7.4c0,0,0,0,0,0L177.4,67c3.6,14.1-2.2,17.7-10.8,17.7c-8.8,0-17.7-3.6-21.1-17.2c-4.6-18-9-35.3-13.4-53.7
		c-0.6-2.4-2.7-4.1-5.2-4.1H102c2.5,0,4.7,1.7,5.3,4.2c4.3,17.8,8.4,34.4,13.6,55.6c6.7,27.1,27.1,37.7,50.6,37.7
		C194.1,107.2,208,94.3,202.1,69.9z"/>
</g>
<g>
	<path class="st0" d="M66.9,117.3c0.4,0.8,0.9,1.7,1.5,2.8c0.5,1.1,1.1,2.3,1.7,3.5c0.6,1.2,1.1,2.4,1.7,3.7
		c0.5,1.3,1.1,2.4,1.5,3.5c0.5-1.1,1-2.2,1.5-3.5c0.5-1.3,1.1-2.5,1.7-3.7c0.6-1.2,1.1-2.4,1.6-3.5c0.5-1.1,1-2,1.5-2.8h3.4
		c0.2,1.5,0.4,3.1,0.5,4.8s0.3,3.5,0.4,5.3c0.1,1.8,0.3,3.6,0.4,5.4c0.1,1.8,0.2,3.6,0.3,5.3h-3.7c-0.1-2.4-0.2-4.9-0.3-7.5
		c-0.1-2.6-0.3-5-0.5-7.4c-0.2,0.5-0.5,1-0.8,1.7s-0.6,1.3-1,2.1s-0.7,1.5-1,2.3s-0.7,1.6-1,2.3s-0.6,1.5-0.9,2.1
		c-0.3,0.7-0.5,1.2-0.7,1.7h-2.8c-0.2-0.5-0.4-1-0.7-1.7c-0.3-0.7-0.6-1.4-0.9-2.1c-0.3-0.8-0.7-1.5-1-2.3c-0.4-0.8-0.7-1.6-1-2.3
		c-0.3-0.7-0.7-1.4-1-2.1c-0.3-0.6-0.6-1.2-0.8-1.6c-0.2,2.4-0.4,4.9-0.5,7.4c-0.1,2.6-0.2,5-0.3,7.5h-3.7c0.1-1.7,0.2-3.5,0.3-5.3
		s0.2-3.7,0.4-5.5c0.1-1.8,0.3-3.6,0.4-5.3c0.2-1.7,0.3-3.3,0.5-4.7H66.9z"/>
	<path class="st0" d="M87.8,130.3c0-1.4,0.2-2.6,0.6-3.6c0.4-1,1-1.9,1.6-2.6c0.7-0.7,1.5-1.2,2.3-1.6c0.9-0.3,1.8-0.5,2.7-0.5
		c2.2,0,3.8,0.7,5.1,2c1.2,1.3,1.8,3.3,1.8,6c0,0.2,0,0.4,0,0.7c0,0.3,0,0.5,0,0.7H91.6c0.1,1.3,0.5,2.2,1.3,2.9
		c0.8,0.7,1.9,1,3.4,1c0.9,0,1.7-0.1,2.4-0.2c0.7-0.2,1.3-0.3,1.7-0.5l0.5,3c-0.2,0.1-0.5,0.2-0.8,0.3c-0.3,0.1-0.8,0.2-1.2,0.3
		c-0.4,0.1-0.9,0.2-1.5,0.2c-0.5,0.1-1,0.1-1.6,0.1c-1.4,0-2.6-0.2-3.6-0.6c-1-0.4-1.9-1-2.5-1.7c-0.7-0.7-1.2-1.6-1.5-2.6
		C88,132.6,87.8,131.5,87.8,130.3z M98.4,128.7c0-0.5-0.1-1-0.2-1.4c-0.1-0.4-0.3-0.8-0.6-1.2c-0.3-0.3-0.6-0.6-1-0.8
		c-0.4-0.2-0.9-0.3-1.4-0.3c-0.6,0-1,0.1-1.5,0.3s-0.8,0.5-1.1,0.8c-0.3,0.3-0.5,0.7-0.7,1.2c-0.2,0.4-0.3,0.9-0.3,1.4H98.4z"/>
	<path class="st0" d="M119.1,137.6c-0.7,0.2-1.6,0.4-2.7,0.6c-1.1,0.2-2.2,0.3-3.4,0.3c-1.2,0-2.4-0.2-3.3-0.6
		c-1-0.4-1.8-0.9-2.5-1.6c-0.7-0.7-1.2-1.6-1.6-2.6s-0.6-2.1-0.6-3.4c0-1.2,0.2-2.4,0.5-3.4c0.3-1,0.8-1.9,1.4-2.6
		c0.6-0.7,1.3-1.3,2.2-1.7c0.9-0.4,1.8-0.6,3-0.6c0.8,0,1.4,0.1,2,0.3c0.6,0.2,1.1,0.4,1.5,0.6v-7.5l3.6-0.6V137.6z M108.7,130.2
		c0,1.6,0.4,2.9,1.1,3.8s1.8,1.4,3.2,1.4c0.6,0,1.1,0,1.5-0.1s0.7-0.1,1-0.2v-9c-0.3-0.2-0.7-0.4-1.3-0.6c-0.5-0.2-1.1-0.3-1.7-0.3
		c-1.3,0-2.3,0.5-2.9,1.4C109,127.4,108.7,128.6,108.7,130.2z"/>
	<path class="st0" d="M135.9,138.5c-1.4,0-2.6-0.2-3.7-0.6c-1-0.4-1.9-1-2.5-1.7s-1.2-1.6-1.5-2.6c-0.3-1-0.5-2.1-0.5-3.3v-13h3.8
		v12.6c0,0.9,0.1,1.7,0.3,2.4c0.2,0.7,0.5,1.2,0.9,1.6c0.4,0.4,0.8,0.7,1.4,0.9c0.5,0.2,1.1,0.3,1.8,0.3s1.3-0.1,1.8-0.3
		s1-0.5,1.4-0.9c0.4-0.4,0.7-1,0.9-1.6c0.2-0.7,0.3-1.5,0.3-2.4v-12.6h3.8v13c0,1.2-0.2,2.3-0.5,3.3s-0.8,1.9-1.5,2.6
		s-1.5,1.3-2.6,1.7C138.5,138.3,137.3,138.5,135.9,138.5z"/>
	<path class="st0" d="M148.8,122.9c0.7-0.2,1.6-0.4,2.7-0.6s2.4-0.3,3.7-0.3c1.3,0,2.3,0.2,3.2,0.5c0.9,0.4,1.5,0.8,2.1,1.5
		c0.5,0.6,0.9,1.4,1.1,2.3c0.2,0.9,0.3,1.9,0.3,2.9v8.8h-3.6v-8.3c0-0.8-0.1-1.6-0.2-2.1c-0.1-0.6-0.3-1.1-0.5-1.4s-0.6-0.6-1-0.8
		c-0.4-0.2-1-0.3-1.6-0.3c-0.5,0-0.9,0-1.4,0.1c-0.5,0.1-0.9,0.1-1.1,0.1v12.7h-3.6V122.9z"/>
	<path class="st0" d="M170.4,117.8c0,0.7-0.2,1.2-0.7,1.6c-0.4,0.4-1,0.6-1.6,0.6c-0.6,0-1.2-0.2-1.6-0.6c-0.4-0.4-0.7-0.9-0.7-1.6
		c0-0.7,0.2-1.2,0.7-1.6c0.4-0.4,1-0.6,1.6-0.6c0.6,0,1.1,0.2,1.6,0.6C170.2,116.5,170.4,117.1,170.4,117.8z M170,138.1h-3.6v-15.7
		h3.6V138.1z"/>
	<path class="st0" d="M72.1,148.1c-2.1,0-3.8,0.7-4.9,2c-1.1,1.3-1.7,3.2-1.7,5.5c0,1.1,0.1,2.1,0.4,3.1c0.3,0.9,0.7,1.7,1.2,2.4
		s1.2,1.2,2,1.5c0.8,0.4,1.7,0.6,2.8,0.6c0.7,0,1.2,0,1.7-0.1c0.5,0,0.9-0.1,1.1-0.2v-7.5h3.8v10c-0.5,0.2-1.4,0.4-2.6,0.7
		c-1.2,0.2-2.7,0.4-4.3,0.4c-1.5,0-2.9-0.2-4.1-0.7c-1.2-0.5-2.3-1.2-3.2-2.1c-0.9-0.9-1.5-2-2-3.4c-0.5-1.3-0.7-2.9-0.7-4.6
		s0.3-3.3,0.8-4.6c0.5-1.3,1.3-2.5,2.2-3.4c0.9-0.9,2-1.6,3.2-2.1c1.2-0.5,2.6-0.7,4-0.7c1,0,1.8,0.1,2.6,0.2
		c0.8,0.1,1.4,0.3,1.9,0.4s1,0.3,1.3,0.5c0.3,0.2,0.6,0.3,0.7,0.4l-1.1,3.1c-0.6-0.4-1.3-0.7-2.2-0.9
		C74,148.2,73.1,148.1,72.1,148.1z"/>
	<path class="st0" d="M91.6,153.6c-0.3-0.1-0.7-0.2-1.2-0.3c-0.5-0.1-1.1-0.2-1.8-0.2c-0.4,0-0.8,0-1.3,0.1
		c-0.5,0.1-0.8,0.2-0.9,0.2v12.6h-3.6v-14.9c0.7-0.3,1.6-0.5,2.6-0.7c1.1-0.2,2.2-0.3,3.5-0.3c0.2,0,0.5,0,0.8,0
		c0.3,0,0.6,0.1,1,0.1c0.3,0.1,0.6,0.1,0.9,0.2s0.5,0.1,0.7,0.2L91.6,153.6z"/>
	<path class="st0" d="M100,150c1.2,0,2.2,0.2,3,0.5s1.5,0.7,2,1.3c0.5,0.5,0.8,1.2,1,2c0.2,0.8,0.3,1.6,0.3,2.5v9.5
		c-0.6,0.1-1.4,0.3-2.5,0.4c-1.1,0.2-2.4,0.3-3.8,0.3c-0.9,0-1.8-0.1-2.6-0.3c-0.8-0.2-1.4-0.5-2-0.9c-0.6-0.4-1-0.9-1.3-1.6
		c-0.3-0.6-0.5-1.4-0.5-2.4c0-0.9,0.2-1.7,0.5-2.3s0.8-1.1,1.4-1.5c0.6-0.4,1.3-0.7,2.1-0.8c0.8-0.2,1.6-0.3,2.5-0.3
		c0.4,0,0.8,0,1.3,0.1c0.4,0,0.9,0.1,1.4,0.3v-0.6c0-0.4,0-0.8-0.1-1.2c-0.1-0.4-0.3-0.7-0.5-1c-0.3-0.3-0.6-0.5-1-0.7
		c-0.4-0.2-0.9-0.2-1.5-0.2c-0.8,0-1.6,0.1-2.3,0.2c-0.7,0.1-1.3,0.3-1.7,0.4l-0.5-2.9c0.5-0.2,1.1-0.3,2-0.5S99,150,100,150z
		 M100.3,163.5c1.1,0,2-0.1,2.5-0.2v-4c-0.2-0.1-0.5-0.1-0.9-0.2c-0.4-0.1-0.8-0.1-1.3-0.1c-0.4,0-0.8,0-1.2,0.1
		c-0.4,0.1-0.8,0.2-1.1,0.3s-0.6,0.4-0.8,0.7s-0.3,0.7-0.3,1.1c0,0.9,0.3,1.5,0.8,1.8S99.4,163.5,100.3,163.5z"/>
	<path class="st0" d="M121.8,152.9c-0.4,0.4-0.9,1-1.6,1.8c-0.7,0.8-1.3,1.6-2.1,2.5s-1.5,1.9-2.2,2.9s-1.4,2-2,2.9h8.1v3h-12.5
		v-2.3c0.4-0.8,1-1.7,1.6-2.6c0.7-0.9,1.3-1.9,2-2.8c0.7-0.9,1.4-1.9,2.1-2.7c0.7-0.9,1.3-1.6,1.8-2.3h-7.2v-3h11.9V152.9z"/>
</g>
</svg>
