<?xml version="1.0" encoding="utf-8"?>
<!-- Generator: Adobe Illustrator 23.0.6, SVG Export Plug-In . SVG Version: 6.00 Build 0)  -->
<svg version="1.1" id="Ebene_1" xmlns="http://www.w3.org/2000/svg" xmlns:xlink="http://www.w3.org/1999/xlink" x="0px" y="0px"
	 viewBox="0 0 746.9 166.5" style="enable-background:new 0 0 746.9 166.5;" xml:space="preserve">
<style type="text/css">
	.st0{fill:#FFFFFF;}
	.st1{fill:url(#SVGID_1_);}
	.st2{fill:url(#SVGID_2_);}
	.st3{fill:url(#SVGID_3_);}
</style>
<g>
	<path class="st0" d="M70.9,131.1c0.7,1.3,1.6,2.8,2.5,4.7c0.9,1.8,1.8,3.8,2.8,5.8c0.9,2,1.9,4.1,2.8,6.1c0.9,2.1,1.8,4,2.5,5.8
		c0.8-1.8,1.6-3.7,2.5-5.8c0.9-2.1,1.8-4.1,2.8-6.1s1.9-3.9,2.8-5.8c0.9-1.8,1.7-3.4,2.5-4.7h5.7c0.3,2.5,0.6,5.2,0.9,8.1
		c0.3,2.9,0.5,5.8,0.7,8.8c0.2,3,0.4,6,0.6,9c0.2,3,0.3,6,0.5,8.8H94c-0.1-4-0.3-8.2-0.5-12.5c-0.2-4.3-0.5-8.4-0.8-12.4
		c-0.4,0.8-0.8,1.7-1.3,2.8s-1,2.2-1.6,3.5c-0.6,1.3-1.1,2.5-1.7,3.9c-0.6,1.3-1.2,2.6-1.7,3.9s-1.1,2.4-1.5,3.5
		c-0.5,1.1-0.9,2-1.2,2.8h-4.7c-0.3-0.8-0.7-1.7-1.2-2.8c-0.5-1.1-1-2.3-1.5-3.5s-1.1-2.5-1.7-3.9s-1.2-2.6-1.7-3.9
		c-0.6-1.2-1.1-2.4-1.6-3.5c-0.5-1.1-0.9-2-1.3-2.7c-0.4,4-0.7,8.1-0.8,12.4c-0.2,4.3-0.3,8.4-0.5,12.5h-6.2
		c0.1-2.9,0.3-5.8,0.5-8.9c0.2-3.1,0.4-6.1,0.6-9.1c0.2-3,0.5-5.9,0.7-8.8c0.3-2.8,0.6-5.5,0.9-7.9H70.9z"/>
	<path class="st0" d="M105.7,152.8c0-2.3,0.3-4.3,1-6c0.7-1.7,1.6-3.2,2.7-4.3c1.1-1.1,2.4-2,3.9-2.6s3-0.9,4.5-0.9
		c3.6,0,6.4,1.1,8.4,3.3c2,2.2,3,5.6,3,10c0,0.3,0,0.7,0,1.1c0,0.4,0,0.8-0.1,1.1H112c0.2,2.1,0.9,3.7,2.2,4.9
		c1.3,1.2,3.2,1.7,5.7,1.7c1.5,0,2.8-0.1,4-0.4c1.2-0.3,2.2-0.5,2.9-0.8l0.8,4.9c-0.3,0.2-0.8,0.3-1.4,0.5c-0.6,0.2-1.3,0.3-2,0.5
		s-1.6,0.3-2.4,0.4c-0.9,0.1-1.8,0.2-2.7,0.2c-2.3,0-4.3-0.3-6-1c-1.7-0.7-3.1-1.6-4.2-2.8c-1.1-1.2-1.9-2.7-2.5-4.3
		C106,156.6,105.7,154.8,105.7,152.8z M123.3,150.1c0-0.8-0.1-1.6-0.4-2.4s-0.6-1.4-1-1.9c-0.5-0.6-1-1-1.7-1.3
		c-0.6-0.3-1.4-0.5-2.3-0.5c-0.9,0-1.8,0.2-2.4,0.5c-0.7,0.3-1.3,0.8-1.8,1.4c-0.5,0.6-0.9,1.2-1.1,1.9c-0.3,0.7-0.5,1.5-0.5,2.3
		H123.3z"/>
	<path class="st0" d="M157.8,165c-1.2,0.4-2.7,0.7-4.5,1c-1.8,0.3-3.7,0.5-5.7,0.5c-2.1,0-3.9-0.3-5.5-1c-1.6-0.6-3-1.5-4.2-2.7
		c-1.1-1.2-2-2.6-2.6-4.3c-0.6-1.7-0.9-3.6-0.9-5.7c0-2.1,0.3-3.9,0.8-5.6c0.5-1.7,1.3-3.1,2.3-4.3s2.2-2.1,3.6-2.8
		c1.4-0.7,3.1-1,5-1c1.3,0,2.4,0.2,3.4,0.5c1,0.3,1.8,0.6,2.5,1V128l6-1V165z M140.5,152.6c0,2.7,0.6,4.8,1.9,6.3
		c1.3,1.5,3,2.3,5.3,2.3c1,0,1.8,0,2.5-0.1s1.2-0.2,1.7-0.3v-15c-0.5-0.4-1.2-0.7-2.1-1c-0.9-0.3-1.8-0.5-2.8-0.5
		c-2.2,0-3.8,0.8-4.8,2.3C141,148,140.5,150.1,140.5,152.6z"/>
	<path class="st0" d="M172.3,132c0,1.1-0.4,2-1.1,2.7c-0.7,0.7-1.6,1-2.6,1c-1,0-1.9-0.3-2.7-1c-0.7-0.7-1.1-1.6-1.1-2.7
		c0-1.2,0.4-2.1,1.1-2.8c0.7-0.7,1.6-1,2.7-1c1,0,1.9,0.3,2.6,1C171.9,129.9,172.3,130.8,172.3,132z M171.6,165.8h-6v-26.2h6V165.8z
		"/>
	<path class="st0" d="M197.6,143.9c-0.7,0.7-1.5,1.7-2.6,3c-1.1,1.3-2.2,2.7-3.5,4.2c-1.2,1.5-2.5,3.2-3.7,4.8
		c-1.3,1.7-2.4,3.3-3.4,4.8h13.5v5h-20.8V162c0.7-1.3,1.6-2.8,2.8-4.3c1.1-1.6,2.2-3.1,3.4-4.7c1.2-1.6,2.3-3.1,3.5-4.5
		c1.1-1.4,2.2-2.7,3.1-3.8h-12v-5.1h19.9V143.9z"/>
	<path class="st0" d="M210.3,132c0,1.1-0.4,2-1.1,2.7c-0.7,0.7-1.6,1-2.6,1c-1,0-1.9-0.3-2.7-1c-0.7-0.7-1.1-1.6-1.1-2.7
		c0-1.2,0.4-2.1,1.1-2.8c0.7-0.7,1.6-1,2.7-1c1,0,1.9,0.3,2.6,1C209.9,129.9,210.3,130.8,210.3,132z M209.6,165.8h-6v-26.2h6V165.8z
		"/>
	<path class="st0" d="M217.3,140.5c1.2-0.3,2.7-0.7,4.6-1c1.9-0.3,3.9-0.5,6.2-0.5c2.1,0,3.9,0.3,5.4,0.9c1.4,0.6,2.6,1.4,3.4,2.5
		s1.5,2.3,1.8,3.8c0.4,1.5,0.5,3.1,0.5,4.9v14.7h-6V152c0-1.4-0.1-2.6-0.3-3.6c-0.2-1-0.5-1.8-0.9-2.4s-1-1.1-1.7-1.4
		c-0.7-0.3-1.6-0.4-2.6-0.4c-0.8,0-1.6,0-2.4,0.2c-0.8,0.1-1.5,0.2-1.8,0.3v21.1h-6.1V140.5z"/>
	<path class="st0" d="M253.3,132c0,1.1-0.4,2-1.1,2.7c-0.7,0.7-1.6,1-2.6,1c-1,0-1.9-0.3-2.7-1c-0.7-0.7-1.1-1.6-1.1-2.7
		c0-1.2,0.4-2.1,1.1-2.8c0.7-0.7,1.6-1,2.7-1c1,0,1.9,0.3,2.6,1C253,129.9,253.3,130.8,253.3,132z M252.7,165.8h-6v-26.2h6V165.8z"
		/>
	<path class="st0" d="M266.9,161.4c1.6,0,2.8-0.2,3.5-0.6c0.7-0.4,1.1-1,1.1-2c0-0.9-0.4-1.6-1.2-2.1c-0.8-0.6-2.1-1.2-3.9-1.9
		c-1.1-0.4-2.1-0.8-3-1.3s-1.7-1-2.4-1.6s-1.2-1.3-1.6-2.2c-0.4-0.9-0.6-1.9-0.6-3.1c0-2.4,0.9-4.3,2.6-5.7s4.2-2.1,7.2-2.1
		c1.5,0,3,0.1,4.4,0.4c1.4,0.3,2.4,0.6,3.1,0.8l-1.1,4.9c-0.7-0.3-1.5-0.6-2.5-0.8c-1-0.3-2.2-0.4-3.6-0.4c-1.2,0-2.2,0.2-3,0.6
		s-1.1,1.1-1.1,1.9c0,0.4,0.1,0.8,0.2,1.1c0.2,0.3,0.4,0.6,0.8,0.9c0.4,0.3,0.8,0.6,1.4,0.8c0.6,0.3,1.3,0.6,2.2,0.9
		c1.4,0.5,2.7,1.1,3.7,1.6s1.8,1.1,2.5,1.8c0.7,0.6,1.1,1.4,1.4,2.2c0.3,0.8,0.5,1.8,0.5,3c0,2.5-0.9,4.4-2.8,5.7
		c-1.9,1.3-4.5,1.9-7.9,1.9c-2.3,0-4.1-0.2-5.5-0.6c-1.4-0.4-2.4-0.7-3-0.9l1.1-5.1c0.9,0.4,2,0.7,3.2,1.1S265.3,161.4,266.9,161.4z
		"/>
	<path class="st0" d="M281.8,152.7c0-1.9,0.3-3.7,0.9-5.4c0.6-1.7,1.5-3.1,2.6-4.4c1.1-1.2,2.5-2.2,4.1-2.9c1.6-0.7,3.4-1,5.4-1
		c2.5,0,4.8,0.5,7,1.3l-1.3,5c-0.7-0.3-1.5-0.5-2.4-0.8c-0.9-0.2-1.8-0.3-2.8-0.3c-2.4,0-4.2,0.7-5.4,2.2c-1.2,1.5-1.9,3.6-1.9,6.3
		c0,2.6,0.6,4.7,1.8,6.2c1.2,1.5,3.1,2.3,5.9,2.3c1,0,2-0.1,3-0.3c1-0.2,1.9-0.4,2.6-0.8l0.8,5c-0.7,0.3-1.7,0.6-3,0.9
		c-1.3,0.3-2.7,0.4-4.2,0.4c-2.2,0-4.2-0.3-5.8-1c-1.6-0.7-3-1.6-4.1-2.8c-1.1-1.2-1.9-2.7-2.4-4.4
		C282.1,156.5,281.8,154.7,281.8,152.7z"/>
	<path class="st0" d="M306.8,165.8V128l6.1-1v13c0.7-0.2,1.4-0.4,2.3-0.6c0.9-0.2,1.8-0.3,2.6-0.3c2.1,0,3.8,0.3,5.2,0.9
		c1.4,0.6,2.5,1.4,3.3,2.5c0.8,1,1.4,2.3,1.8,3.8c0.4,1.5,0.5,3.1,0.5,4.9v14.7h-6V152c0-1.4-0.1-2.6-0.3-3.6
		c-0.2-1-0.5-1.8-0.9-2.4s-1-1.1-1.7-1.4c-0.7-0.3-1.6-0.4-2.6-0.4c-0.8,0-1.6,0.1-2.5,0.3c-0.8,0.2-1.5,0.3-1.8,0.5v20.8H306.8z"/>
	<path class="st0" d="M334.5,152.8c0-2.3,0.3-4.3,1-6c0.7-1.7,1.6-3.2,2.7-4.3c1.1-1.1,2.4-2,3.9-2.6s3-0.9,4.5-0.9
		c3.6,0,6.4,1.1,8.4,3.3c2,2.2,3,5.6,3,10c0,0.3,0,0.7,0,1.1c0,0.4,0,0.8-0.1,1.1h-17.3c0.2,2.1,0.9,3.7,2.2,4.9
		c1.3,1.2,3.2,1.7,5.7,1.7c1.5,0,2.8-0.1,4-0.4c1.2-0.3,2.2-0.5,2.9-0.8l0.8,4.9c-0.3,0.2-0.8,0.3-1.4,0.5c-0.6,0.2-1.3,0.3-2,0.5
		s-1.6,0.3-2.4,0.4c-0.9,0.1-1.8,0.2-2.7,0.2c-2.3,0-4.3-0.3-6-1c-1.7-0.7-3.1-1.6-4.2-2.8c-1.1-1.2-1.9-2.7-2.5-4.3
		C334.8,156.6,334.5,154.8,334.5,152.8z M352,150.1c0-0.8-0.1-1.6-0.4-2.4s-0.6-1.4-1-1.9c-0.5-0.6-1-1-1.7-1.3
		c-0.6-0.3-1.4-0.5-2.3-0.5c-0.9,0-1.8,0.2-2.4,0.5c-0.7,0.3-1.3,0.8-1.8,1.4c-0.5,0.6-0.9,1.2-1.1,1.9c-0.3,0.7-0.5,1.5-0.5,2.3
		H352z"/>
	<path class="st0" d="M394.4,166.5c-2.4,0-4.4-0.3-6.1-1c-1.7-0.7-3.1-1.6-4.2-2.9c-1.1-1.2-1.9-2.7-2.5-4.3
		c-0.5-1.7-0.8-3.5-0.8-5.5v-21.7h6.3v21.1c0,1.6,0.2,2.9,0.5,4c0.3,1.1,0.8,2,1.5,2.7c0.6,0.7,1.4,1.2,2.3,1.5
		c0.9,0.3,1.9,0.5,3,0.5c1.1,0,2.1-0.2,3-0.5c0.9-0.3,1.7-0.9,2.3-1.5c0.7-0.7,1.2-1.6,1.5-2.7c0.3-1.1,0.5-2.5,0.5-4v-21.1h6.3
		v21.7c0,2-0.3,3.8-0.8,5.5c-0.5,1.7-1.4,3.1-2.5,4.3c-1.1,1.2-2.5,2.2-4.3,2.9C398.9,166.2,396.8,166.5,394.4,166.5z"/>
	<path class="st0" d="M415.9,140.5c1.2-0.3,2.7-0.7,4.6-1c1.9-0.3,3.9-0.5,6.2-0.5c2.1,0,3.9,0.3,5.4,0.9c1.4,0.6,2.6,1.4,3.4,2.5
		s1.5,2.3,1.8,3.8c0.4,1.5,0.5,3.1,0.5,4.9v14.7h-6V152c0-1.4-0.1-2.6-0.3-3.6c-0.2-1-0.5-1.8-0.9-2.4s-1-1.1-1.7-1.4
		c-0.7-0.3-1.6-0.4-2.6-0.4c-0.8,0-1.6,0-2.4,0.2c-0.8,0.1-1.5,0.2-1.8,0.3v21.1h-6.1V140.5z"/>
	<path class="st0" d="M451.9,132c0,1.1-0.4,2-1.1,2.7c-0.7,0.7-1.6,1-2.6,1c-1,0-1.9-0.3-2.7-1c-0.7-0.7-1.1-1.6-1.1-2.7
		c0-1.2,0.4-2.1,1.1-2.8c0.7-0.7,1.6-1,2.7-1c1,0,1.9,0.3,2.6,1C451.6,129.9,451.9,130.8,451.9,132z M451.3,165.8h-6v-26.2h6V165.8z
		"/>
	<path class="st0" d="M465.7,165.8c-1.7-3.4-3.4-7.4-5.1-11.8c-1.8-4.5-3.4-9.2-4.8-14.3h6.5c0.4,1.5,0.8,3,1.3,4.7
		c0.5,1.7,1,3.4,1.6,5c0.6,1.7,1.1,3.3,1.7,4.9s1.1,3,1.6,4.3c0.5-1.3,1-2.7,1.6-4.3c0.6-1.6,1.1-3.2,1.7-4.9c0.6-1.7,1.1-3.4,1.6-5
		c0.5-1.7,0.9-3.3,1.3-4.7h6.3c-1.4,5.1-3,9.9-4.8,14.3c-1.8,4.5-3.5,8.4-5.1,11.8H465.7z"/>
	<path class="st0" d="M483.8,152.8c0-2.3,0.3-4.3,1-6c0.7-1.7,1.6-3.2,2.7-4.3c1.1-1.1,2.4-2,3.9-2.6s3-0.9,4.5-0.9
		c3.6,0,6.4,1.1,8.4,3.3c2,2.2,3,5.6,3,10c0,0.3,0,0.7,0,1.1c0,0.4,0,0.8-0.1,1.1h-17.3c0.2,2.1,0.9,3.7,2.2,4.9
		c1.3,1.2,3.2,1.7,5.7,1.7c1.5,0,2.8-0.1,4-0.4c1.2-0.3,2.2-0.5,2.9-0.8l0.8,4.9c-0.3,0.2-0.8,0.3-1.4,0.5c-0.6,0.2-1.3,0.3-2,0.5
		s-1.6,0.3-2.4,0.4c-0.9,0.1-1.8,0.2-2.7,0.2c-2.3,0-4.3-0.3-6-1c-1.7-0.7-3.1-1.6-4.2-2.8c-1.1-1.2-1.9-2.7-2.5-4.3
		C484.1,156.6,483.8,154.8,483.8,152.8z M501.4,150.1c0-0.8-0.1-1.6-0.4-2.4s-0.6-1.4-1-1.9c-0.5-0.6-1-1-1.7-1.3
		c-0.6-0.3-1.4-0.5-2.3-0.5c-0.9,0-1.8,0.2-2.4,0.5c-0.7,0.3-1.3,0.8-1.8,1.4c-0.5,0.6-0.9,1.2-1.1,1.9c-0.3,0.7-0.5,1.5-0.5,2.3
		H501.4z"/>
	<path class="st0" d="M528.7,145.1c-0.5-0.2-1.2-0.3-2.1-0.5c-0.9-0.2-1.9-0.3-3.1-0.3c-0.7,0-1.4,0.1-2.1,0.2
		c-0.8,0.1-1.3,0.3-1.6,0.3v21h-6.1v-24.9c1.2-0.4,2.6-0.8,4.4-1.2c1.8-0.4,3.7-0.6,5.8-0.6c0.4,0,0.9,0,1.4,0.1
		c0.5,0,1.1,0.1,1.6,0.2s1,0.2,1.5,0.3c0.5,0.1,0.9,0.2,1.2,0.3L528.7,145.1z"/>
	<path class="st0" d="M540.5,161.4c1.6,0,2.8-0.2,3.5-0.6c0.7-0.4,1.1-1,1.1-2c0-0.9-0.4-1.6-1.2-2.1c-0.8-0.6-2.1-1.2-3.9-1.9
		c-1.1-0.4-2.1-0.8-3-1.3s-1.7-1-2.4-1.6s-1.2-1.3-1.6-2.2c-0.4-0.9-0.6-1.9-0.6-3.1c0-2.4,0.9-4.3,2.6-5.7s4.2-2.1,7.2-2.1
		c1.5,0,3,0.1,4.4,0.4c1.4,0.3,2.4,0.6,3.1,0.8l-1.1,4.9c-0.7-0.3-1.5-0.6-2.5-0.8c-1-0.3-2.2-0.4-3.6-0.4c-1.2,0-2.2,0.2-3,0.6
		s-1.1,1.1-1.1,1.9c0,0.4,0.1,0.8,0.2,1.1c0.2,0.3,0.4,0.6,0.8,0.9c0.4,0.3,0.8,0.6,1.4,0.8c0.6,0.3,1.3,0.6,2.2,0.9
		c1.4,0.5,2.7,1.1,3.7,1.6s1.8,1.1,2.5,1.8c0.7,0.6,1.1,1.4,1.4,2.2c0.3,0.8,0.5,1.8,0.5,3c0,2.5-0.9,4.4-2.8,5.7
		c-1.9,1.3-4.5,1.9-7.9,1.9c-2.3,0-4.1-0.2-5.5-0.6c-1.4-0.4-2.4-0.7-3-0.9l1.1-5.1c0.9,0.4,2,0.7,3.2,1.1S538.9,161.4,540.5,161.4z
		"/>
	<path class="st0" d="M563.6,132c0,1.1-0.4,2-1.1,2.7c-0.7,0.7-1.6,1-2.6,1c-1,0-1.9-0.3-2.7-1c-0.7-0.7-1.1-1.6-1.1-2.7
		c0-1.2,0.4-2.1,1.1-2.8c0.7-0.7,1.6-1,2.7-1c1,0,1.9,0.3,2.6,1C563.2,129.9,563.6,130.8,563.6,132z M562.9,165.8h-6v-26.2h6V165.8z
		"/>
	<path class="st0" d="M570.3,132.7l6-1v7.9h9.3v5.1h-9.3v10.6c0,2.1,0.3,3.6,1,4.5c0.7,0.9,1.8,1.4,3.4,1.4c1.1,0,2.1-0.1,2.9-0.4
		c0.9-0.2,1.5-0.5,2-0.6l1,4.8c-0.7,0.3-1.6,0.6-2.8,0.9c-1.1,0.3-2.5,0.5-4,0.5c-1.9,0-3.4-0.3-4.7-0.8s-2.2-1.2-3-2.2
		s-1.3-2.1-1.5-3.5c-0.3-1.3-0.5-2.9-0.5-4.6V132.7z"/>
	<path class="st0" d="M600.2,139c2,0,3.7,0.3,5,0.8s2.5,1.2,3.3,2.1c0.8,0.9,1.4,2,1.8,3.3s0.5,2.7,0.5,4.2v15.9
		c-0.9,0.2-2.3,0.4-4.2,0.7c-1.9,0.3-4,0.4-6.4,0.4c-1.6,0-3-0.1-4.3-0.5c-1.3-0.3-2.4-0.8-3.3-1.4s-1.6-1.5-2.1-2.6
		c-0.5-1.1-0.8-2.4-0.8-4c0-1.5,0.3-2.8,0.9-3.8c0.6-1,1.4-1.9,2.4-2.5c1-0.7,2.2-1.1,3.5-1.4s2.7-0.4,4.1-0.4c0.7,0,1.4,0,2.1,0.1
		c0.7,0.1,1.5,0.2,2.3,0.4v-1c0-0.7-0.1-1.4-0.3-2c-0.2-0.6-0.5-1.2-0.9-1.7s-1-0.9-1.6-1.1c-0.7-0.3-1.5-0.4-2.6-0.4
		c-1.4,0-2.7,0.1-3.9,0.3c-1.2,0.2-2.1,0.4-2.8,0.7l-0.8-4.9c0.8-0.3,1.9-0.5,3.3-0.8C597,139.1,598.6,139,600.2,139z M595.8,135.3
		c-0.9,0-1.7-0.3-2.3-0.9c-0.7-0.6-1-1.4-1-2.5s0.3-1.9,1-2.5c0.7-0.6,1.5-0.9,2.3-0.9c0.9,0,1.7,0.3,2.4,0.9c0.7,0.6,1,1.4,1,2.5
		s-0.3,1.8-1,2.5C597.5,135,596.7,135.3,595.8,135.3z M600.7,161.5c1.9,0,3.3-0.1,4.3-0.3v-6.7c-0.3-0.1-0.8-0.2-1.5-0.3
		c-0.6-0.1-1.3-0.2-2.1-0.2c-0.7,0-1.3,0-2,0.2c-0.7,0.1-1.3,0.3-1.8,0.5c-0.5,0.3-1,0.6-1.3,1.1c-0.3,0.5-0.5,1.1-0.5,1.8
		c0,1.4,0.5,2.4,1.4,3C598,161.3,599.2,161.5,600.7,161.5z M606.1,135.3c-0.9,0-1.7-0.3-2.4-0.9c-0.7-0.6-1-1.4-1-2.5s0.3-1.9,1-2.5
		c0.7-0.6,1.5-0.9,2.4-0.9c0.9,0,1.7,0.3,2.3,0.9c0.7,0.6,1,1.4,1,2.5s-0.3,1.8-1,2.5C607.8,135,607,135.3,606.1,135.3z"/>
	<path class="st0" d="M617.9,132.7l6-1v7.9h9.3v5.1H624v10.6c0,2.1,0.3,3.6,1,4.5c0.7,0.9,1.8,1.4,3.4,1.4c1.1,0,2.1-0.1,2.9-0.4
		c0.9-0.2,1.5-0.5,2-0.6l1,4.8c-0.7,0.3-1.6,0.6-2.8,0.9c-1.1,0.3-2.5,0.5-4,0.5c-1.9,0-3.4-0.3-4.7-0.8s-2.2-1.2-3-2.2
		s-1.3-2.1-1.5-3.5c-0.3-1.3-0.5-2.9-0.5-4.6V132.7z"/>
	<path class="st0" d="M663.8,135.9c-3.6,0-6.3,1.1-8.2,3.3c-1.9,2.2-2.8,5.3-2.8,9.2c0,1.9,0.2,3.6,0.7,5.1c0.4,1.5,1.1,2.9,2,4
		c0.9,1.1,2,2,3.3,2.6c1.3,0.6,2.9,0.9,4.6,0.9c1.1,0,2,0,2.8-0.1c0.8-0.1,1.4-0.2,1.9-0.3v-12.5h6.3v16.7c-0.9,0.3-2.3,0.7-4.4,1.1
		c-2.1,0.4-4.4,0.6-7.1,0.6c-2.5,0-4.8-0.4-6.9-1.2s-3.8-2-5.3-3.5s-2.6-3.4-3.4-5.7c-0.8-2.2-1.2-4.8-1.2-7.7
		c0-2.9,0.4-5.5,1.3-7.7c0.9-2.2,2.1-4.1,3.6-5.7c1.5-1.6,3.3-2.7,5.4-3.5s4.3-1.2,6.6-1.2c1.6,0,3,0.1,4.3,0.3s2.3,0.5,3.2,0.7
		c0.9,0.3,1.6,0.6,2.2,0.9s1,0.5,1.2,0.6l-1.9,5.2c-1-0.6-2.2-1.1-3.7-1.5C667,136.1,665.4,135.9,663.8,135.9z"/>
	<path class="st0" d="M696.3,145.1c-0.5-0.2-1.2-0.3-2.1-0.5c-0.9-0.2-1.9-0.3-3.1-0.3c-0.7,0-1.4,0.1-2.1,0.2
		c-0.8,0.1-1.3,0.3-1.6,0.3v21h-6.1v-24.9c1.2-0.4,2.6-0.8,4.4-1.2c1.8-0.4,3.7-0.6,5.8-0.6c0.4,0,0.9,0,1.4,0.1
		c0.5,0,1.1,0.1,1.6,0.2s1,0.2,1.5,0.3c0.5,0.1,0.9,0.2,1.2,0.3L696.3,145.1z"/>
	<path class="st0" d="M710.3,139c2,0,3.7,0.3,5,0.8s2.5,1.2,3.3,2.1c0.8,0.9,1.4,2,1.8,3.3s0.5,2.7,0.5,4.2v15.9
		c-0.9,0.2-2.3,0.4-4.2,0.7c-1.9,0.3-4,0.4-6.4,0.4c-1.6,0-3-0.1-4.3-0.5c-1.3-0.3-2.4-0.8-3.3-1.4s-1.6-1.5-2.1-2.6
		c-0.5-1.1-0.8-2.4-0.8-4c0-1.5,0.3-2.8,0.9-3.8c0.6-1,1.4-1.9,2.4-2.5c1-0.7,2.2-1.1,3.5-1.4s2.7-0.4,4.1-0.4c0.7,0,1.4,0,2.1,0.1
		c0.7,0.1,1.5,0.2,2.3,0.4v-1c0-0.7-0.1-1.4-0.3-2c-0.2-0.6-0.5-1.2-0.9-1.7s-1-0.9-1.6-1.1c-0.7-0.3-1.5-0.4-2.6-0.4
		c-1.4,0-2.7,0.1-3.9,0.3c-1.2,0.2-2.1,0.4-2.8,0.7l-0.8-4.9c0.8-0.3,1.9-0.5,3.3-0.8C707,139.1,708.6,139,710.3,139z M710.8,161.5
		c1.9,0,3.3-0.1,4.3-0.3v-6.7c-0.3-0.1-0.8-0.2-1.5-0.3c-0.6-0.1-1.3-0.2-2.1-0.2c-0.7,0-1.3,0-2,0.2c-0.7,0.1-1.3,0.3-1.8,0.5
		c-0.5,0.3-1,0.6-1.3,1.1c-0.3,0.5-0.5,1.1-0.5,1.8c0,1.4,0.5,2.4,1.4,3C708,161.3,709.2,161.5,710.8,161.5z"/>
	<path class="st0" d="M746.6,143.9c-0.7,0.7-1.5,1.7-2.6,3c-1.1,1.3-2.2,2.7-3.5,4.2c-1.2,1.5-2.5,3.2-3.7,4.8
		c-1.3,1.7-2.4,3.3-3.4,4.8h13.5v5h-20.8V162c0.7-1.3,1.6-2.8,2.8-4.3c1.1-1.6,2.2-3.1,3.4-4.7c1.2-1.6,2.3-3.1,3.5-4.5
		c1.1-1.4,2.2-2.7,3.1-3.8h-12v-5.1h19.9V143.9z"/>
</g>
<g>
	<linearGradient id="SVGID_1_" gradientUnits="userSpaceOnUse" x1="72.2215" y1="76.9967" x2="113.955" y2="66.4365">
		<stop  offset="0.65" style="stop-color:#FFFFFF"/>
		<stop  offset="0.7223" style="stop-color:#FCFCFC"/>
		<stop  offset="0.7972" style="stop-color:#F3F3F3"/>
		<stop  offset="0.8733" style="stop-color:#E4E4E4"/>
		<stop  offset="0.9497" style="stop-color:#CECECE"/>
		<stop  offset="0.9997" style="stop-color:#BDBCBC"/>
	</linearGradient>
	<path class="st1" d="M121.5,9.7l-25,84.6c-0.4,1.3-1.5,2.2-2.9,2.2H69.3c-1.4,0-2.6-1-2.9-2.3L51.1,36.8h-0.3l-27,126.7
		c-0.3,1.4-1.5,2.4-2.9,2.4H3c-1.9,0-3.4-1.8-2.9-3.7L35.2,12c0.3-1.3,1.5-2.3,2.9-2.3h26.2c1.4,0,2.7,1,2.9,2.4l13.2,59h0.3
		l16-57.3c0.6-2.4,2.7-4,5.1-4H121.5z"/>
	<linearGradient id="SVGID_2_" gradientUnits="userSpaceOnUse" x1="185.2585" y1="0.5425" x2="186.307" y2="-1.9855">
		<stop  offset="0.65" style="stop-color:#4BAA3C"/>
		<stop  offset="0.7768" style="stop-color:#4BA83C"/>
		<stop  offset="0.8786" style="stop-color:#4BA23B"/>
		<stop  offset="0.9715" style="stop-color:#4A993B"/>
		<stop  offset="1" style="stop-color:#4A953B"/>
	</linearGradient>
	<path class="st2" d="M192.1,0c0,0-8.6,0-13.2,0"/>
	<linearGradient id="SVGID_3_" gradientUnits="userSpaceOnUse" x1="149.732" y1="55.1263" x2="174.5215" y2="-2.4343">
		<stop  offset="0.65" style="stop-color:#FFFFFF"/>
		<stop  offset="0.7223" style="stop-color:#FCFCFC"/>
		<stop  offset="0.7972" style="stop-color:#F3F3F3"/>
		<stop  offset="0.8733" style="stop-color:#E4E4E4"/>
		<stop  offset="0.9497" style="stop-color:#CECECE"/>
		<stop  offset="0.9997" style="stop-color:#BDBCBC"/>
	</linearGradient>
	<path class="st3" d="M192.1,0c0,0-8.6,0-13.2,0c-8.6,0-15.9,8.1-13.6,17.3L177.4,67c3.6,14.1-2.2,17.7-10.8,17.7
		c-8.8,0-17.7-3.6-21.1-17.2c-4.6-18-9-35.3-13.4-53.8c-0.6-2.4-2.7-4.1-5.2-4.1H102c2.5,0,4.7,1.7,5.3,4.2
		c4.3,17.8,8.4,34.4,13.6,55.6c6.7,27.1,27.1,37.7,50.6,37.7c22.6,0,36.6-12.9,30.6-37.3l-12.8-52.6c-2.5-10.3,7-17.2,9.7-14.8
		C197.4,1.1,195.2,0,192.1,0"/>
	<g>
		<path class="st0" d="M192.1,0c-5.4,0-10.3,0-13.2,0c7.7,0,14,6.3,14,14c0,0,2.6-8.2,2.6-8.2l6.7,2.7C202.2,8.6,200.9,0,192.1,0z"
			/>
	</g>
</g>
</svg>
