<svg xmlns="http://www.w3.org/2000/svg" xmlns:xlink="http://www.w3.org/1999/xlink" viewBox="0 0 203.55 166.47"><defs><linearGradient id="adaf791c-08eb-4c47-8b92-cd622084bad2" x1="81.83" y1="75.19" x2="118" y2="66.44" gradientUnits="userSpaceOnUse"><stop offset="0.75" stop-color="#333" stop-opacity="0"/><stop offset="1" stop-color="#333" stop-opacity="0.3"/></linearGradient><linearGradient id="b6510ad8-0074-448d-bdf0-c78adc434345" x1="141.34" y1="73.03" x2="175.85" y2="-1.12" xlink:href="#adaf791c-08eb-4c47-8b92-cd622084bad2"/></defs><title>Zeichenfläche 1</title><g style="isolation:isolate"><g id="a2d01866-c65a-4997-af5e-13c7896a0be9" data-name="Ebene 1"><path d="M121.53,9.73l-25,84.69a3,3,0,0,1-2.9,2.21H69.29a3,3,0,0,1-2.92-2.32L51.13,36.86h-.27l-27,126.74a3,3,0,0,1-2.94,2.4H3a3,3,0,0,1-2.92-3.7L35.22,12a3,3,0,0,1,2.91-2.3H64.31a3,3,0,0,1,2.94,2.41l13.24,59h.28l16-57.35a5.31,5.31,0,0,1,5.15-4Z" fill="#007934"/><g style="mix-blend-mode:multiply"><path d="M121.53,9.73l-25,84.69a3,3,0,0,1-2.9,2.21H69.29a3,3,0,0,1-2.92-2.32L51.13,36.86h-.27l-27,126.74a3,3,0,0,1-2.94,2.4H3a3,3,0,0,1-2.92-3.7L35.22,12a3,3,0,0,1,2.91-2.3H64.31a3,3,0,0,1,2.94,2.41l13.24,59h.28l16-57.35a5.31,5.31,0,0,1,5.15-4Z" fill="url(#adaf791c-08eb-4c47-8b92-cd622084bad2)"/></g><path d="M192.16,0H179a14,14,0,0,0-13.65,17.26l12.12,49.8c3.62,14.14-2.25,17.73-10.79,17.73-8.81,0-17.69-3.64-21.16-17.19-4.6-18-9-35.3-13.43-53.8a5.28,5.28,0,0,0-5.15-4.07H102a5.43,5.43,0,0,1,5.28,4.16c4.31,17.83,8.38,34.45,13.59,55.63,6.66,27.09,27.08,37.73,50.67,37.73,22.65,0,36.59-12.89,30.61-37.31L189.34,17.28C186.82,7,196.38,0,199.06,2.52A9.7,9.7,0,0,0,192.16,0" fill="#34b233"/><path d="M192.16,0H179a14,14,0,0,0-13.65,17.26l12.12,49.8c3.62,14.14-2.25,17.73-10.79,17.73-8.81,0-17.69-3.64-21.16-17.19-4.6-18-9-35.3-13.43-53.8a5.28,5.28,0,0,0-5.15-4.07H102a5.43,5.43,0,0,1,5.28,4.16c4.31,17.83,8.38,34.45,13.59,55.63,6.66,27.09,27.08,37.73,50.67,37.73,22.65,0,36.59-12.89,30.61-37.31L189.34,17.28C186.82,7,196.38,0,199.06,2.52A9.7,9.7,0,0,0,192.16,0" fill="url(#b6510ad8-0074-448d-bdf0-c78adc434345)" style="mix-blend-mode:multiply"/><path d="M192.16,0H179a14,14,0,0,1,14,14l2.64-8.17,6.66,2.74S201,0,192.16,0Z" fill="#ff7f45"/><path d="M66.9,117.26q.66,1.14,1.47,2.79c.54,1.1,1.09,2.25,1.65,3.46s1.11,2.45,1.66,3.7,1.06,2.4,1.52,3.46l1.5-3.46c.54-1.25,1.09-2.48,1.65-3.7s1.11-2.36,1.65-3.46,1-2,1.47-2.79h3.4c.19,1.52.36,3.13.52,4.84s.31,3.47.45,5.25.25,3.6.36,5.41.21,3.57.29,5.29H80.77q-.12-3.63-.29-7.47t-.5-7.44l-.78,1.65c-.3.64-.62,1.34-1,2.09s-.69,1.52-1,2.32l-1,2.32c-.33.75-.63,1.46-.91,2.11l-.72,1.66H71.73L71,133.61c-.28-.66-.59-1.36-.92-2.11l-1-2.33c-.35-.8-.69-1.57-1-2.31l-1-2.09c-.3-.64-.56-1.19-.78-1.63-.23,2.4-.39,4.88-.51,7.44s-.2,5-.29,7.47H61.78c.09-1.72.18-3.5.29-5.34s.24-3.66.37-5.48.28-3.56.44-5.26.34-3.27.52-4.71Z" fill="#333"/><path d="M87.82,130.28a9.86,9.86,0,0,1,.62-3.63,7.74,7.74,0,0,1,1.63-2.6,6.74,6.74,0,0,1,2.34-1.55,7.25,7.25,0,0,1,2.7-.53,6.47,6.47,0,0,1,5.06,2q1.81,2,1.81,6c0,.2,0,.43,0,.68s0,.47,0,.67H91.57a4.17,4.17,0,0,0,1.34,2.93,5.11,5.11,0,0,0,3.43,1,11.34,11.34,0,0,0,2.42-.24,9.87,9.87,0,0,0,1.72-.51l.48,3a7.09,7.09,0,0,1-.82.32c-.35.1-.75.21-1.2.3s-.94.16-1.46.22a13.86,13.86,0,0,1-1.59.09,9.83,9.83,0,0,1-3.6-.61,6.82,6.82,0,0,1-2.52-1.71,7.17,7.17,0,0,1-1.47-2.58A10.57,10.57,0,0,1,87.82,130.28Zm10.53-1.62a4.8,4.8,0,0,0-.21-1.43,3.52,3.52,0,0,0-.61-1.17,2.88,2.88,0,0,0-1-.77,3,3,0,0,0-1.4-.29,3.25,3.25,0,0,0-1.47.31,3.34,3.34,0,0,0-1.06.83,3.78,3.78,0,0,0-.68,1.17,6.34,6.34,0,0,0-.33,1.35Z" fill="#333"/><path d="M119.08,137.57a21.4,21.4,0,0,1-2.71.6,21.13,21.13,0,0,1-3.44.27,9.15,9.15,0,0,1-3.33-.57,6.8,6.8,0,0,1-2.5-1.64,7.07,7.07,0,0,1-1.59-2.57,9.87,9.87,0,0,1-.56-3.41,11.39,11.39,0,0,1,.47-3.37,7.4,7.4,0,0,1,1.36-2.6,6.07,6.07,0,0,1,2.19-1.66,7,7,0,0,1,3-.59,6.79,6.79,0,0,1,2,.27,9,9,0,0,1,1.5.6v-7.53l3.63-.6Zm-10.41-7.41a5.69,5.69,0,0,0,1.14,3.76,3.86,3.86,0,0,0,3.15,1.37,12.49,12.49,0,0,0,1.49-.08,7.79,7.79,0,0,0,1-.16v-9a6,6,0,0,0-1.27-.62,5.27,5.27,0,0,0-1.7-.28,3.24,3.24,0,0,0-2.89,1.35A6.44,6.44,0,0,0,108.67,130.16Z" fill="#333"/><path d="M135.88,138.5a9.6,9.6,0,0,1-3.66-.62,6.61,6.61,0,0,1-2.53-1.72,7,7,0,0,1-1.49-2.61,10.78,10.78,0,0,1-.48-3.3v-13h3.81v12.63a8.09,8.09,0,0,0,.32,2.41,4.16,4.16,0,0,0,.9,1.64,3.59,3.59,0,0,0,1.38.93,5,5,0,0,0,1.78.3,5.15,5.15,0,0,0,1.8-.3,3.59,3.59,0,0,0,1.4-.93,4.16,4.16,0,0,0,.9-1.64,8.11,8.11,0,0,0,.31-2.41V117.26h3.81v13a10.48,10.48,0,0,1-.49,3.3,7.2,7.2,0,0,1-1.5,2.61,6.61,6.61,0,0,1-2.57,1.72A9.83,9.83,0,0,1,135.88,138.5Z" fill="#333"/><path d="M148.78,122.87a24.32,24.32,0,0,1,2.73-.57,23.54,23.54,0,0,1,3.72-.27,8.77,8.77,0,0,1,3.21.52A5.12,5.12,0,0,1,160.5,124a5.74,5.74,0,0,1,1.08,2.28,12.85,12.85,0,0,1,.31,2.93v8.82h-3.63V129.8a11.9,11.9,0,0,0-.16-2.14,3.92,3.92,0,0,0-.54-1.45,2.14,2.14,0,0,0-1-.8,4.32,4.32,0,0,0-1.58-.26,12.1,12.1,0,0,0-1.44.09l-1.11.15v12.66h-3.63Z" fill="#333"/><path d="M170.38,117.77a2.08,2.08,0,0,1-.66,1.62,2.24,2.24,0,0,1-1.56.6,2.28,2.28,0,0,1-1.59-.6,2.08,2.08,0,0,1-.66-1.62,2.12,2.12,0,0,1,.66-1.65,2.28,2.28,0,0,1,1.59-.6,2.24,2.24,0,0,1,1.56.6A2.12,2.12,0,0,1,170.38,117.77ZM170,138.05h-3.63V122.36H170Z" fill="#333"/><path d="M72.07,148.11a6.1,6.1,0,0,0-4.9,2,8.32,8.32,0,0,0-1.7,5.54,10.91,10.91,0,0,0,.41,3.07,6.8,6.8,0,0,0,1.2,2.39,5.36,5.36,0,0,0,2,1.54,6.46,6.46,0,0,0,2.77.56c.66,0,1.23,0,1.71-.07a6.87,6.87,0,0,0,1.14-.2v-7.47h3.78v10a17.51,17.51,0,0,1-2.64.66,22.76,22.76,0,0,1-4.29.36,11.3,11.3,0,0,1-4.11-.72,8.51,8.51,0,0,1-3.16-2.1,9.55,9.55,0,0,1-2-3.39,13.66,13.66,0,0,1-.72-4.62,12.49,12.49,0,0,1,.8-4.62,10,10,0,0,1,2.17-3.4,9,9,0,0,1,3.24-2.12,10.87,10.87,0,0,1,4-.72,15.23,15.23,0,0,1,2.57.19,19.64,19.64,0,0,1,1.93.44,7.9,7.9,0,0,1,1.34.51l.73.39-1.14,3.09a9.54,9.54,0,0,0-2.23-.92A10.77,10.77,0,0,0,72.07,148.11Z" fill="#333"/><path d="M91.6,153.63a11.25,11.25,0,0,0-1.24-.32,10,10,0,0,0-1.85-.16,7.24,7.24,0,0,0-1.27.12,7.8,7.8,0,0,0-.95.21v12.57H82.66V151.11a18.66,18.66,0,0,1,2.63-.73,16.3,16.3,0,0,1,3.49-.35c.24,0,.52,0,.84.05s.64.07,1,.11.63.11.93.19.54.13.72.19Z" fill="#333"/><path d="M100,150a8.88,8.88,0,0,1,3,.45,4.86,4.86,0,0,1,2,1.26,4.76,4.76,0,0,1,1,2,9.71,9.71,0,0,1,.31,2.54v9.51c-.56.12-1.4.27-2.53.44a26,26,0,0,1-3.83.25,11.48,11.48,0,0,1-2.58-.27,5.4,5.4,0,0,1-2-.87,4.11,4.11,0,0,1-1.29-1.56,5.41,5.41,0,0,1-.47-2.37,4.58,4.58,0,0,1,.53-2.28,4.4,4.4,0,0,1,1.42-1.52,6.41,6.41,0,0,1,2.09-.84,12.39,12.39,0,0,1,2.47-.25,11.22,11.22,0,0,1,1.26.08,11.69,11.69,0,0,1,1.41.25v-.6a4.7,4.7,0,0,0-.15-1.2,2.35,2.35,0,0,0-1.51-1.68,4.31,4.31,0,0,0-1.55-.24,13.71,13.71,0,0,0-2.31.18,10.16,10.16,0,0,0-1.71.42l-.45-2.94a14.29,14.29,0,0,1,2-.48A15.76,15.76,0,0,1,100,150Zm.3,13.53a13.51,13.51,0,0,0,2.55-.18v-4a7.06,7.06,0,0,0-.87-.18,8.11,8.11,0,0,0-1.26-.09,8.31,8.31,0,0,0-1.21.09,3.79,3.79,0,0,0-1.11.33,2,2,0,0,0-.8.68,1.87,1.87,0,0,0-.3,1.09,1.94,1.94,0,0,0,.81,1.79A4.18,4.18,0,0,0,100.27,163.5Z" fill="#333"/><path d="M121.75,152.91c-.4.42-.92,1-1.57,1.77s-1.35,1.61-2.09,2.53-1.48,1.91-2.23,2.92-1.43,2-2,2.89h8.1v3H109.45V163.8a28.52,28.52,0,0,1,1.65-2.61c.66-.94,1.34-1.89,2-2.84s1.4-1.85,2.09-2.71,1.3-1.61,1.84-2.25h-7.23v-3h11.91Z" fill="#333"/></g></g></svg>